<svg width="512" height="512" fill="none" xmlns="http://www.w3.org/2000/svg"><path d="M197.5 20.1c-40.2 9-53.7 12.4-56 14.1-6.5 4.8-98.1 79.2-99.2 80.6-1 1.3-1.3 34.2-1.3 157.4V428H26.5c-13.2 0-14.7.2-16.5 2-1.9 1.9-2 3.3-2 36s.1 34.1 2 36c2 2 3.3 2 246 2s244 0 246-2c1.9-1.9 2-3.3 2-36s-.1-34.1-2-36c-1.8-1.8-3.3-2-16.5-2H471V272.2c0-123.1-.3-156.1-1.2-157.4-2.3-2.8-109.7-82.7-112-83.3-1.3-.3-23.9-5.7-50.3-12-27.9-6.7-49.9-11.4-52.5-11.4-2.5.1-28.3 5.5-57.5 12zm107 16.3l47.6 11.4L403 86l51 38.2V428h-50V205h4.4c3.3 0 5.2-.6 7.3-2.4l2.8-2.4v-19.5c0-19.3 0-19.6-2.4-22.1l-2.4-2.6H98.3l-2.7 2.1-2.6 2v40.8l2.6 2c1.8 1.4 4.1 2.1 7 2.1h4.4v223H58l.2-152.2.3-152.2L91 97.2c17.9-14.5 38.9-31.5 46.7-37.8l14.1-11.5 50.9-11.3c27.9-6.3 51.6-11.5 52.5-11.5 1-.1 23.2 5 49.3 11.3zM402 180.5v7.5H110v-15h292v7.5zm-155 70.6c0 43.6-.1 46.1-1.7 44.8-2.6-2.1-103.6-87.9-105.3-89.5-1.2-1.2 6.8-1.4 52.8-1.4H247v46.1zm123.5-44.2c-3.6 3.4-105.6 90.1-106 90.1-.3 0-.5-20.7-.5-46v-46h54.2c53.3 0 54.2 0 52.3 1.9zm17.1 209.8c-.4.5-118.1-99.6-118.1-100.4 0-.3 26.6-23.1 59-50.8l59-50.3.3 100.6c.1 55.3 0 100.7-.2 100.9zM184.8 267.4c55.1 46.9 57.3 48.9 55.5 50.6-1 .9-26.3 22.5-56.3 48-30 25.5-55.7 47.4-57.2 48.8l-2.8 2.6V316.6c0-95.5.1-100.8 1.7-99.5 1 .8 27.6 23.4 59.1 50.3zm61.9 160.3c-.2.2-24.6.2-54.3.1l-53.8-.3 53.9-46 54-46.1.3 46c.1 25.2.1 46.1-.1 46.3zm73.8-44.7c28.6 24.4 52.2 44.4 52.4 44.6.2.2-24.2.4-54.2.4H264v-93.3l2.3 2c1.2 1.1 25.6 22 54.2 46.3zM488 466v22H24v-44h464v22z" fill="#000"/><path d="M243.8 40.6c-12.5 3-23.5 10.7-30.7 21.5-5.7 8.5-8.1 16.9-8.1 28.4s2.4 19.9 8.1 28.4c20.4 30.6 65.4 30.6 85.8 0 5.7-8.5 8.1-16.9 8.1-28.4s-2.4-19.9-8.1-28.4c-12-18-34.1-26.6-55.1-21.5zm4.2 28.9V82h-25.1l.7-2.3c3.1-10.1 12.6-19 24.2-22.6.1-.1.2 5.5.2 12.4zm30-4.8c4.9 4.4 9.1 10.4 10.5 15 .6 2.3.6 2.3-11.9 2.3H264V57.1l4.5 1.6c2.5.8 6.8 3.5 9.5 6zm-30 46.7v12.5l-4.5-1.6c-7.7-2.6-17.6-13-20-21.1-.6-2.2-.6-2.2 11.9-2.2H248v12.4zm40.5-10.2c-2.4 8.1-12.3 18.5-20 21.1l-4.5 1.6V99h12.6c12.5 0 12.5 0 11.9 2.2z" fill="#000"/></svg>