<svg width="512" height="512" fill="none" xmlns="http://www.w3.org/2000/svg"><path d="M2 64c-2 2-2 3.3-2 192s0 190 2 192 3.3 2 254 2 252 0 254-2 2-3.3 2-192 0-190-2-192-3.3-2-168.3-2H175.3l-1.8 2c-2.6 2.9-2.5 8.5.3 11.3l2.3 2.2 66.9.3 67 .2v46H15V78l67.5-.2 67.4-.3 2.3-2.2c3.1-3.1 3-8.9-.1-11.4-2.2-1.8-5.5-1.9-75.2-1.9C5.3 62 4 62 2 64zm494 37v23H326V78h170v23zM310 287v147h-15V160.3l-2.1-2.7-2-2.6h-128C36.3 155 35 155 33 157s-2 3.3-2 139.5V434H16V140h294v147zm186-124v23h-59.4c-57 0-59.5.1-61.7 1.9l-2.4 1.9-.3 42.9c-.3 42.4-.2 43 1.8 45.6 2.7 3.4 8.9 3.8 12 .7 1.9-1.9 2-3.3 2-39.5V202h46v232h-46v-65.3c0-71.1.2-68.7-5.6-70.1-3.6-.9-7.9.9-9.3 4-.8 1.8-1.1 21.2-1.1 66.9V434h-46V140h170v23zm-357 15.5v7.5h-14.2c-16.5 0-19.9 1.1-26 7.8-4.8 5.3-5.8 9.3-5.8 23 0 10.7.1 11.4 2.5 13.7l2.4 2.5h25c16.6 0 25.8-.4 27.5-1.1 4.9-2.3 5.3-11.4.6-13.9-1.1-.6-10.8-1-21.9-1H109v-4.9c0-3.4.6-5.6 2.1-7.5l2-2.6h99.8l2 2.6c1.5 1.9 2.1 4.1 2.1 7.5v4.9h-20.3c-22.3 0-24 .4-25.2 5.9-.8 3.8 1.6 8.6 4.7 9.5 1.3.3 13.5.6 27.1.6h24.8l2.4-2.5c2.4-2.3 2.5-3.1 2.5-13.6 0-13.9-1.2-18.1-7-24-5.8-6-9.1-6.9-26.2-6.9H186v-15h93v77h-4.6c-4.5 0-8.2 1.3-9.6 3.4-1 1.4-1 7.8 0 9.2 1.4 2.1 5.1 3.4 9.6 3.4h4.6v15h-4.9c-6.7 0-10.1 2.7-10.1 8.1 0 5.7 2.6 7.9 9.5 7.9h5.5v15h-4.9c-6.7 0-10.1 2.7-10.1 8.1 0 5.7 2.6 7.9 9.5 7.9h5.5v15h-4.9c-6.7 0-10.1 2.7-10.1 8.1 0 5.7 2.6 7.9 9.5 7.9h5.5v15h-4.9c-3.3 0-5.6.6-7.4 2-2.2 1.7-2.6 1.8-3.1.4-.3-.9-.6-2.3-.6-3.2 0-3.5-6.1-14.3-10.5-18.7-4.7-4.7-15.3-10.5-19.2-10.5-1.8 0-2.6-1.5-5.9-11.3-2-6.1-4.8-13.4-6.1-16.1-4.8-9.6-15.7-17.4-27.2-19.6-7.2-1.3-55.2-1.3-62.6.1-10.2 1.9-19.1 7.5-24.7 15.7-1.7 2.5-5.2 10.4-7.7 17.5l-4.6 12.9-5.7 1.8c-3.1.9-7.2 2.7-9.1 3.9-8.2 5.1-15.9 16.5-17.3 25.8-.6 4.2-.6 4.2-2.3 2.1-1.3-1.6-3.2-2.2-7.4-2.6l-5.7-.4V357h5.4c4.7 0 5.7-.4 7.5-2.6 2.6-3.3 2.7-7.5.3-10.4-1.4-1.8-3.2-2.4-7.5-2.8l-5.7-.4V326h5c6.2 0 10-3.1 10-8s-3.8-8-10-8h-5v-15h5c6.2 0 10-3.1 10-8s-3.8-8-10-8h-5v-15h5c6.2 0 10-3.1 10-8s-3.8-8-10-8h-5v-77h92v7.5zm31 0v7.5h-15v-15h15v7.5zM496 318v116h-46V202h46v116zm-303.5-6.9c4.9 1.4 10.6 5.4 13.4 9.4 1.1 1.7 3.4 7 5 11.8l3 8.7h-51c-28 0-50.9-.1-50.9-.3 0-1.4 6.6-17.9 8.1-20.4 2.5-4.1 6.8-7.2 12.2-8.9 5.4-1.7 54.3-1.9 60.2-.3zm44.1 49.4c3 1.9 6 4.9 7.9 7.9 2.9 4.7 3 5.5 3.3 17.5.4 11.5.2 12.9-1.6 15.1l-2 2.5h-81c-78.2 0-81.1-.1-83.1-1.9-1.9-1.7-2.1-3-2.1-14.3 0-8.1.5-13.5 1.3-15.6 2.2-5.2 6.8-9.8 12.2-12.3l5-2.4 67.6.2 67.6.3 4.9 3zM64.2 407.6c2 3.6 7.7 8.9 10.7 9.9 1.8.6 2.1 1.4 2.1 7 0 3.5.3 7 .6 7.9.5 1.4-1.2 1.6-15 1.6H47v-15h5.2c6.4 0 9.8-2.6 9.8-7.6 0-5.2-2.8-7.6-9.3-8.2l-5.7-.4V388h5.3c4.2 0 5.8-.5 7.3-2.1 1.9-2.1 1.9-2 2.4 8.2.4 6.9 1.1 11.4 2.2 13.5zM273.5 388h5.5v14.8l-5.5.4c-6.9.6-9.5 2.7-9.5 8 0 5.6 2.6 7.8 9.5 7.8h5.5v15h-31v-8c0-6 .3-8 1.3-8 2.7 0 9.7-6 11.9-10.2 1.7-3.3 2.3-6.5 2.6-13.9.4-9.5.5-9.6 2.3-7.8 1.4 1.4 3.3 1.9 7.4 1.9zM124 424.4c0 2.9-.7 5.2-2.1 7-2 2.5-2.3 2.6-13.4 2.6-11.1 0-11.4-.1-13.4-2.6-1.4-1.8-2.1-4.1-2.1-7V420h31v4.4zm62.2 2.6l.3 7h-47.7l.6-2.3c.3-1.2.6-4.3.6-7V420h45.8l.4 7zm45.8-1.6c0 7.8-1.5 8.6-15.2 8.6-13.2 0-14.8-1-14.8-9v-5h30v5.4z" fill="#000"/><path d="M374.7 94.8c-3 3.3-3.2 7.5-.4 10.8l2.5 2.9h34.5c32.5 0 34.6-.1 36.6-1.9 2.8-2.6 2.9-8.8.1-11.6-1.9-1.9-3.3-2-36.8-2-32.4 0-35 .1-36.5 1.8zM110.9 249.9c-3.3 2.7-3.3 9.5 0 12.2 5.3 4.3 13.1.7 13.1-6.1s-7.8-10.4-13.1-6.1zm46.6.6c-5 4.9-1.5 13.5 5.5 13.5 1.9 0 4-.9 5.5-2.5 5-4.9 1.5-13.5-5.5-13.5-1.9 0-4 .9-5.5 2.5zm47.2-1.3c-2.6 2.1-3.8 6.3-2.6 9.8 2.9 8.2 14.9 5.8 14.9-3 0-3-.6-4.3-2.6-5.9-3-2.4-7.2-2.7-9.7-.9zm-69.2 14.9c-1.1.7-2.3 1.7-2.7 2.3-1.3 1.9-.8 8.4.7 10 3.2 3.2 8.7 3.2 11.9 0 1.9-1.9 2.1-8.3.3-10.7-1.5-2.2-7.6-3.1-10.2-1.6zm45 1.4c-5 4.9-1.5 13.5 5.5 13.5 1.9 0 4-.9 5.5-2.5 1.6-1.5 2.5-3.6 2.5-5.5s-.9-4-2.5-5.5c-1.5-1.6-3.6-2.5-5.5-2.5s-4 .9-5.5 2.5zm-85 109c-5.2 5.1-2.1 13.5 4.9 13.5 4.3 0 7.4-2.6 8.2-6.7.5-2.7.1-3.7-2.4-6.3-3.7-3.7-7.4-3.9-10.7-.5zm32.8-1.5c-4.5 1.8-5.8 9.5-2.3 13 1.9 1.9 3.3 2 36.9 2h35l2-2.6c3.4-4.3 2.1-10.2-2.6-12.3-2.9-1.3-65.7-1.4-69-.1zm93 0c-4.5 1.9-5.6 8-2.2 12.4 2.9 3.7 8.9 3.7 11.9-.1 2.4-3 2.2-8.5-.2-11-1.8-1.7-6.8-2.5-9.5-1.3zM64 95c-2.8 2.8-2.7 9 .1 11.6 2 1.8 5.3 1.9 96.8 2.2 52 .1 95.6 0 96.9-.3 5.9-1.4 8-8 4.1-12.9l-2-2.6h-97C67.3 93 66 93 64 95z" fill="#000"/></svg>