<svg width="512" height="512" fill="none" xmlns="http://www.w3.org/2000/svg"><g clip-path="url(#clip0_568_190)" fill="#000"><path d="M127.5 68.9C58.8 106.9 2 138.7 1.3 139.6.3 141 0 178 0 324.5v183.2l2.3 2.1c2.3 2.1 3 2.2 27.6 2.2h25.2l2.4-2.5 2.5-2.4V274h392v233.1l2.5 2.4 2.4 2.5h25.4c25.2 0 25.4 0 27.5-2.3l2.2-2.3V149.3l-2.2-2c-1.3-1.1-57.9-34.6-125.8-74.4C284.9 14.8 259.7.5 256.5.2c-3.7-.3-14.7 5.6-129 68.7zM375.3 89l118.6 69.5.1 167.7V494h-24V344.5c0-164.6.4-154.1-6.1-156.4-4.5-1.6-411.3-1.6-415.8 0-6.5 2.3-6.1-8.2-6.1 156.4V494H18V150.3l118.7-65.6c65.4-36.1 119.1-65.5 119.4-65.4.3.1 54 31.5 119.2 69.7zM452 213v8H60v-16h392v8zm0 34.5v8.5H60v-17h392v8.5z"/><path d="M207.5 121.4c-3.3 3.3-3.7 6.7-3.3 27l.3 17.8 2.8 2.4 2.8 2.4h91.8l2.8-2.4 2.8-2.4.3-17.8c.4-20.3 0-23.7-3.3-27l-2.4-2.4h-92.2l-2.4 2.4zM290 145v8h-68v-16h68v8zm27.9 147.6l-2.4 2.6-.3 48.4-.3 48.4h-47.5c-48.7 0-50.2.1-53.1 3.9-.9 1.2-1.2 14.9-1.3 56.4v54.8l2.5 2.4 2.4 2.5h212.8l2.4-2.6 2.4-2.6V295.2l-2.4-2.6-2.4-2.6H320.3l-2.4 2.6zm31.1 27.8c0 14 1 18 5.1 20.1 4 2.1 37.4 2.1 42.4.1 4.5-1.9 5.5-5.8 5.5-20.9V308h16v84h-85v-84h16v12.4zm35-4.4v8h-17v-16h17v8zM247 423.6c0 13.6.6 16.6 3.9 19.1 1.1.9 7.6 1.2 22.2 1.3h20.6l2.7-2.6c2.6-2.6 2.6-2.9 2.6-17V410h16v84h-84v-84h16v13.6zm34-5.6v8h-16v-16h16v8zm68.2 6.6c.3 14.6.3 14.6 3.1 17 2.8 2.4 3.1 2.4 23.2 2.4 20.1 0 20.4 0 23.2-2.4 2.8-2.4 2.8-2.4 3.1-17l.4-14.6H418v84h-85v-84h15.8l.4 14.6zM384 418v8h-17v-16h17v8z"/></g><defs><clipPath id="clip0_568_190"><path fill="#fff" d="M0 0h512v512H0z"/></clipPath></defs></svg>