<svg width="512" height="512" fill="none" xmlns="http://www.w3.org/2000/svg"><g clip-path="url(#clip0_568_214)" fill="#000"><path d="M186.4 1.4C182.2 3.3 18 93.4 11 97.6 3.5 102.1.7 106.5.2 114.7c-.5 7.8 1.4 13.6 6.4 18.7 5.2 5.4 9 7 15.9 7 5 0 7.3-.7 12.8-3.6l6.7-3.6v21.9c0 20.6.1 22 2 23.9 2.7 2.7 9.3 2.7 12 0 1.9-1.9 2-3.3 2-28.3v-26.3L126.1 87c37.5-20.5 68.7-37.3 69.3-37.3.7 0 31.9 16.8 69.4 37.4l68.2 37.4V315H58v-51.9c0-50.9 0-51.9-2.1-54.5-2.7-3.5-8.6-3.6-11.7-.3l-2.2 2.3v148.5c0 148.1 0 148.5 2 150.7l2.1 2.2h298.6l1.9-2.1c1.8-2 1.9-4.9 2.4-65l.5-62.9 22.5 25.2c35.2 39.4 34.6 38.8 39 38.8 3 0 4.3-.6 5.9-2.6 4.5-5.7 4.7-5.3-32.9-47.3l-35-39V331h10.8c14.9 0 14.2-1.1 14.2 22.2 0 24.5-1.7 22.8 22.8 22.8H415v20.8c0 20 .1 21 2.1 22.8 1.9 1.7 4.1 1.9 20 2.2l17.9.3v18.3c0 18.9.8 23.9 4 25.6 1 .6 9.8 1 19.4 1H496v30h-21.6l-13.6-15.3c-21.6-24.1-21.1-23.7-24.5-23.7-4.7 0-8.3 3.4-8.3 7.9 0 3.5 1.5 5.4 19 24.9l19.1 21.2H487c19.7 0 21.1-.1 23-2 1.9-1.9 2-3.3 2-28.4v-26.5l-2.6-2c-2.5-1.9-4-2.1-20.5-2.1H471v-20.5c0-19.2-.1-20.6-2-22.5-1.9-1.9-3.3-2-19.9-2h-18l-.3-20.6-.3-20.6-2.7-2.3c-2.3-2-2.8-3.2-2.8-7 0-4.1.2-4.5 2.5-4.5 3.3 0 14.2-4.1 20.1-7.5 10.7-6.2 20.3-18 25.5-31 2.2-5.7 2.4-7.3 2.7-33.6l.3-27.7 4.5-.7c5-.7 7.4-3.3 7.4-8 0-5.1-2.4-7.5-7.6-7.5H476v-7.9c0-9.1-1.6-14.5-6.6-21.8-15.8-23.1-53.3-18.7-63.5 7.5-3.5 8.8-3.2 20.7.5 28.9 3.2 7 11.3 15.4 17.1 17.9 3.5 1.4 3.5 1.4 3.5 7.9v6.5h-22c-20.7 0-22.1.1-24 2-1.1 1.1-2 3.3-2 4.9v2.9l-9.1.4c-8.1.3-9.3.6-11 2.7-3 3.6-2.1 17.6 1.6 26.3.6 1.6 0 1.8-5.4 1.8H349v-90.5c0-49.8.2-90.5.5-90.5s3.2 1.3 6.5 3c10.8 5.4 18.8 4.9 26.2-1.8 10.6-9.6 11.6-25.6 2.2-34.4-1.6-1.4-42.9-24.6-91.9-51.4L203.5.5l-7-.2c-4.4-.2-8.1.2-10.1 1.1zm98.3 62.2c47.7 26.2 87.6 48.3 88.6 49.2 4.5 4 0 12.1-6.3 11.2-.8-.1-39.2-20.9-85.3-46.2-70.4-38.7-84.3-45.9-87-45.6-1.8.2-39.8 20.4-86.7 46.2-45.9 25.2-84.5 45.8-85.8 45.8-5.3.1-8.4-7.9-4.4-11.5 3.8-3.4 174.8-96.6 177.4-96.6 1.7-.1 33.7 17 89.5 47.5zm159.6 143.1c.4.3-1 1.4-3.1 2.3-5.2 2.4-10.9 8.6-12.7 13.9-.8 2.4-1.5 7.9-1.5 12l-.1 7.6-2.9-3.2c-2.8-3.1-5-8.7-5-12.7 0-7.3 7.4-17.5 14.2-19.5 3.9-1.1 10.2-1.4 11.1-.4zm13.3 18.8l2.5 2.5-.3 37.7-.3 37.8-3.1 6.5c-11.8 24.7-41 33.4-63.4 19-8.8-5.7-16.8-16.8-18.6-25.8l-.6-3.2h5c4.1 0 5.2.4 5.7 1.9 1.1 3.7 12.2 12.8 18.2 15.1 7.8 2.9 19.7 3 27.1.2 14.2-5.4 24-18.8 24.3-33.4.1-5.3-.2-6.4-2.1-8-1.2-1-3.7-1.8-5.6-1.8H443v-44.8l2.6-3.1c3.4-4 8.3-4.3 12-.6zM436 291c0 .5-1.4 2.5-3.2 4.5-9 10.3-23.6 10.3-32.6 0-1.8-2-3.2-4-3.2-4.5 0-.6 7.6-1 19.5-1s19.5.4 19.5 1zm-103 50.5V352H58v-21h275v10.5zm71.5 9.4c3.9.6 4 .8 4.3 4.9l.3 4.2H390v-13.8l5.3 2c2.8 1.1 7 2.3 9.2 2.7zM124 368.3c0 .1-6.2 6.4-13.8 14L96.5 396l-14-14-14-14h27.8c15.2 0 27.7.1 27.7.3zm99 0c0 .1-6.2 6.4-13.8 14L195.5 396l-14-14-14-14h27.8c15.2 0 27.7.1 27.7.3zm99 0c0 .1-6.2 6.4-13.8 14L294.5 396l-14-14-14-14h27.8c15.2 0 27.7.1 27.7.3zm-156.7 20.5l18.7 18.7-19 19-19 19-19-19-19-19 18.7-18.7c10.3-10.4 19-18.8 19.3-18.8.3 0 9 8.4 19.3 18.8zm99 0l18.7 18.7-19 19-19 19-19-19-19-19 18.7-18.7c10.3-10.4 19-18.8 19.3-18.8.3 0 9 8.4 19.3 18.8zM71.8 420.7C64.5 428 58.4 434 58.3 434c-.2 0-.3-12-.3-26.7v-26.8L71.5 394 85 407.5l-13.2 13.2zm261.2-13v26.8L319.5 421 306 407.5l13.2-13.2c7.3-7.3 13.4-13.3 13.5-13.3.2 0 .3 12 .3 26.7zM115.5 476l-19 19-19-19-19-19 19-19 19-19 19 19 19 19-19 19zm99 0l-19 19-19-19-19-19 19-19 19-19 19 19 19 19-19 19zm99 0l-19 19-19-19-19-19 19-19 19-19 19 19 19 19-19 19zm-153 7l14 14h-57l14-14c7.7-7.7 14.2-14 14.5-14 .3 0 6.8 6.3 14.5 14zm99 0l14 14h-57l14-14c7.7-7.7 14.2-14 14.5-14 .3 0 6.8 6.3 14.5 14zM67 488.5l8.5 8.5H58v-8.5c0-4.7.1-8.5.3-8.5.1 0 4 3.8 8.7 8.5zm266 0v8.5h-17.5l8.5-8.5c4.7-4.7 8.6-8.5 8.7-8.5.2 0 .3 3.8.3 8.5z"/><path d="M78.4 137.1c-1.8 2-1.9 5-2.2 77.3-.2 49.9 0 76.3.7 78.7.7 2.3 2 4 3.6 4.7 1.9.9 16.4 1.2 51.4 1.2 47.9 0 48.9 0 51.5-2.1l2.6-2v-78c0-76.6 0-77.9-2-79.9-1.9-1.9-3.3-2-52.8-2-50.5 0-50.9 0-52.8 2.1zM170 217v66H92V151h78v66z"/><path d="M150.3 236.2c-3.6 1.8-4.5 5.7-4.1 18.8.3 11.4.5 12.3 2.7 14.1 3.2 2.6 8.2 2.5 10.9-.4 2-2.2 2.2-3.4 2.2-15.6 0-12.7-.1-13.3-2.5-15.6-2.5-2.6-5.6-3.1-9.2-1.3zm58.2-98.7l-2.5 2.4v40.9c0 38.9.1 41.1 1.9 43.3l1.9 2.4 49.6.3 49.6.3 2.5-2.5 2.5-2.5v-83l-2.6-2c-2.6-2.1-3.6-2.1-51.6-2.1h-48.9l-2.4 2.5zm43.5 25V174h-30v-23h30v11.5zm46 0V174h-30v-23h30v11.5zm-46 38V211h-30v-21h30v10.5zm46 0V211h-30v-21h30v10.5z"/></g><defs><clipPath id="clip0_568_214"><path fill="#fff" d="M0 0h512v512H0z"/></clipPath></defs></svg>