<svg width="512" height="512" fill="none" xmlns="http://www.w3.org/2000/svg"><g clip-path="url(#clip0_568_195)" fill="#000"><path d="M185.2 102c-36.5 9.8-67.1 18.4-68 19.2-.9.9-26.9 22.8-57.7 48.8-30.8 26-56.8 48.2-57.7 49.4-2.4 2.9-2.3 9.1.2 11.6 3.2 3.2 6.9 3.6 11.2 1.2l3.8-2V411h-6c-5.1 0-6.5.4-8.5 2.5-3.4 3.3-3.4 9.3-.2 12.3l2.3 2.2h503.1l2.1-2.3c3.1-3.3 3-9-.3-12.2-2-2.1-3.4-2.5-8.5-2.5h-6V230.2l3.8 2c4.3 2.4 8 2 11.2-1.2 2.5-2.5 2.6-8.7.2-11.6-1.8-2.3-110.8-94.6-115.7-98.1-3.7-2.6-133.4-37.3-139.1-37.2-2.1 0-33.7 8.1-70.2 17.9zm135.1 16.6c34.2 9.1 63.3 17.3 64.7 18.2 1.4.9 22.6 18.6 47.3 39.4l44.7 37.9V411h-44l-.2-86.1-.3-86.1-2.8-2.4-2.8-2.4H85.1l-2.8 2.4-2.8 2.4-.3 86.1L79 411H35V214.1l44.8-37.8c24.6-20.8 45.5-38.4 46.5-39.2 2-1.6 124.6-34.9 129-35 1.5-.1 30.8 7.4 65 16.5zM415 260.5v8.5H97v-17h318v8.5zm0 35.5v9H97v-18h318v9zm0 35v9H97v-18h318v9zm0 35.5v8.5H97v-17h318v8.5zm0 35.5v9H97v-18h318v9z"/><path d="M165 154.7c-.8.3-2.5 1.5-3.7 2.6-2.2 2-2.3 2.5-2.3 23.4 0 28.6-2.3 26.3 26.3 26.3h21.4l2.4-2.6c2.3-2.5 2.4-3.1 2.7-21.2.2-12-.1-20.1-.8-22.5-1.8-6-4.6-6.7-26.2-6.6-10.1 0-19 .3-19.8.6zm29 26.3v9h-18v-18h18v9zm41.1-25.9c-4.8 1.9-5 3-5.1 26.1v21.7l2.6 2c2.5 2 3.9 2.1 23.4 2.1s20.9-.1 23.4-2.1l2.6-2v-21.7c-.1-23.4-.2-24.2-5.4-26.2-3.4-1.3-38.2-1.2-41.5.1zM265 181v9h-18v-18h18v9zm40.3-25.6c-4.8 2.2-5.5 6-5.1 27.8.3 18.1.4 18.7 2.7 21.2l2.4 2.6h21.4c28.6 0 26.3 2.3 26.3-26.3v-21.4l-2.6-2.4c-2.5-2.4-2.9-2.4-22.2-2.6-15.2-.2-20.4 0-22.9 1.1zM336 181v9h-18v-18h18v9z"/></g><defs><clipPath id="clip0_568_195"><path fill="#fff" d="M0 0h512v512H0z"/></clipPath></defs></svg>