<svg width="512" height="512" fill="none" xmlns="http://www.w3.org/2000/svg"><g clip-path="url(#clip0_568_235)"><path d="M219.5 1.1c-13.8 1.4-33.9 4.9-46.2 8-18.2 4.5-37.2 10.9-40.1 13.4l-2.7 2.3-.3 57.6c-.1 31.7-.5 57.6-.7 57.6-.3 0-10.6-6.8-23-15-16.6-11-23.4-15-25.6-15-3.7 0-8.5 2.4-9.9 4.9-.6 1.2-1 12.2-1 28.5V170H49c-22.3 0-25.6.6-28 4.9-.7 1.3-1 53.2-1 159V491h-4.4C4.6 491 0 494.3 0 502c0 3.8.5 5.3 2.6 7.4l2.7 2.6h501.4l2.7-2.6c2.1-2.1 2.6-3.6 2.6-7.4 0-7.7-4.6-11-15.6-11H492V333.9c0-105.8-.3-157.7-1-159-2.4-4.3-5.7-4.9-28-4.9h-21v-26.6c0-16.3-.4-27.3-1-28.5-1.4-2.5-6.2-4.9-9.9-4.9-2.2 0-9 4-25.6 15-12.4 8.2-22.7 15-23 15-.3 0-.5-25.3-.5-56.3 0-42.8-.3-56.8-1.3-58.7-1.6-3.3-5.6-5.1-20.6-9.5-24.2-6.9-46.9-11.4-71.1-14-14.6-1.6-55.8-1.8-69.5-.4zm76 22.3c15.9 2.2 38.2 6.8 53 10.9l12 3.4.3 19.2c.2 18.2.1 19.3-1.5 18.6-1-.3-9-2.4-17.8-4.5-34.8-8.5-61.4-11.5-96.5-10.7-31.2.7-55.7 4.2-81.7 11.7-5.7 1.7-10.8 3-11.3 3-.7 0-.9-6.7-.8-18.7l.3-18.6 5.5-1.9c15.9-5.5 45.3-11.7 65.5-13.7 13.8-1.4 58.9-.6 73 1.3zm-6 59.5c20.5 2.5 47.4 8 64.5 13.2l7 2.1v38l-2.2-.6c-60.2-17.1-118.3-20-173.8-8.6-8 1.7-18.9 4.3-24.3 5.9l-9.7 2.9.2-19.1.3-19.1 6-1.8c21.4-6.6 45.9-11.5 68-13.8 11.2-1.1 51.9-.5 64 .9zM111 153.7l19 12.6V491H91V316c0-96.3.2-175 .5-175s9.1 5.7 19.5 12.7zM287.5 143c20.8 2.4 41.2 6.4 62.3 12.1l11.2 3.1v18.9c0 10.4-.2 18.9-.5 18.9s-6.7-1.6-14.3-3.5c-34.7-8.7-58.5-11.7-92.2-11.8-26.7-.1-43.7 1.4-66 5.9-11.1 2.2-30.6 7.1-35.2 8.9-1.7.7-1.8-.6-1.8-18.4v-19l9.8-3.1c19.7-6.1 45.4-11.1 67.2-13 12.3-1 46.6-.5 59.5 1zM421 316v175h-39V166.3l18.8-12.6c10.3-6.9 19-12.6 19.5-12.6.4-.1.7 78.6.7 174.9zM70 341v150H41V191h29v150zm401 0v150h-29V191h29v150zM289 203.6c18.1 1.9 33.4 4.8 52 9.6 8.5 2.2 16.5 4.2 17.8 4.5 2.2.5 2.2.6 2.2 19.8v19.3l-8.2-2.4c-12-3.4-40.3-9.1-54.8-11-44.8-5.7-94.5-2.2-135.8 9.6-5.6 1.7-10.5 3-10.7 3-.3 0-.5-8.5-.5-18.8v-18.9l10.3-3.1c41.1-12.6 83.2-16.4 127.7-11.6zm-2.4 59.9c22.1 2.3 49.6 7.8 69.4 13.9l4.5 1.3.3 19.3c.2 16.9.1 19.2-1.3 18.6-9.1-3.5-42.7-10.5-63.5-13.3-19-2.5-68-2.5-86 0-16.1 2.3-33.8 5.9-47 9.7-5.8 1.6-10.8 3-11.2 3-.5 0-.8-8.4-.8-18.8v-18.7l12.8-3.8c19.5-5.7 42.9-10.2 62.7-12 11.6-1 46.9-.6 60.1.8zm-7.1 59.6c23.4 2 53.1 7.5 74.4 13.9l7.1 2.1V491h-39V382h6.5c5.7 0 6.8-.3 9.7-2.9 2.8-2.5 3.3-3.6 3.3-7.6 0-4-.5-5.1-3.3-7.6L335 361H177l-3.2 2.9c-2.8 2.5-3.3 3.6-3.3 7.6 0 4 .5 5.1 3.3 7.6 2.9 2.6 4 2.9 9.7 2.9h6.5v109h-39l.2-76.1.3-76.2 4-1.4c8.4-3 34.5-9.3 46.5-11.2 23.7-3.9 53.7-5.1 77.5-3zM245 436.5V491h-34V382h34v54.5zm56 0V491h-34V382h34v54.5z" fill="#000"/></g><defs><clipPath id="clip0_568_235"><path fill="#fff" d="M0 0h512v512H0z"/></clipPath></defs></svg>